<?xml version="1.0" standalone="no"?>
<!DOCTYPE svg PUBLIC "-//W3C//DTD SVG 20010904//EN"
 "http://www.w3.org/TR/2001/REC-SVG-20010904/DTD/svg10.dtd">
<svg version="1.0" xmlns="http://www.w3.org/2000/svg"
 width="261.000000pt" height="261.000000pt" viewBox="0 0 261.000000 261.000000"
 preserveAspectRatio="xMidYMid meet">
<metadata>
Created by potrace 1.11, written by Peter Selinger 2001-2013
</metadata>
<g transform="translate(0.000000,261.000000) scale(0.100000,-0.100000)"
fill="#000000" stroke="none">
<path d="M1243 2599 c-54 -10 -50 -8 -553 -298 -294 -170 -446 -263 -469 -289
-19 -20 -46 -62 -60 -92 l-25 -55 -1 -535 c-1 -365 2 -551 10 -585 15 -67 40
-112 86 -156 49 -47 199 -135 208 -121 3 6 5 297 5 649 -2 693 -3 675 54 687
24 6 75 -19 322 -159 161 -91 294 -165 295 -165 2 0 45 -24 96 -54 l93 -55 40
24 c123 70 256 145 296 167 25 14 95 53 155 88 61 34 135 76 165 92 30 17 70
39 87 50 43 26 88 17 106 -20 11 -21 13 -162 13 -669 -1 -354 2 -643 6 -643
18 0 167 95 201 128 42 40 80 107 91 159 10 43 10 1071 1 1114 -11 52 -49 121
-87 158 -29 29 -140 98 -314 197 -28 16 -117 67 -198 114 -80 47 -154 90 -164
95 -308 178 -348 193 -459 174z"/>
<path d="M906 418 c1 -123 2 -226 3 -230 1 -8 236 -143 287 -164 23 -10 68
-17 110 -17 81 0 102 8 282 111 85 49 112 70 113 86 3 90 1 427 -3 432 -3 3
-29 -9 -57 -26 -29 -16 -54 -30 -56 -30 -2 0 -34 -17 -72 -39 -169 -95 -205
-112 -221 -106 -9 3 -98 51 -198 106 -99 54 -182 99 -185 99 -2 0 -4 -100 -3
-222z"/>
</g>
</svg>
